<svg width="78" height="35" viewBox="0 0 78 35" fill="none" xmlns="http://www.w3.org/2000/svg">
<path d="M74.6015 33.7553L72.8086 30.6217L73.7616 30.6279L75.0232 32.9961L76.2995 30.6443L77.2525 30.6504L75.4431 33.7554L75.4364 34.7881L74.5949 34.7826L74.6015 33.7553Z" fill="white"/>
<path d="M68.5841 32.6438C68.586 32.3483 68.6435 32.0734 68.7567 31.8193C68.8698 31.5634 69.0323 31.3424 69.2441 31.1561C69.4577 30.9681 69.7171 30.8211 70.0222 30.7152C70.329 30.6092 70.6754 30.5574 71.0612 30.5599C71.3992 30.5621 71.7087 30.5986 71.9896 30.6695C72.2724 30.7385 72.5345 30.8438 72.7761 30.9851L72.3844 31.6198C72.3121 31.5715 72.2283 31.5285 72.133 31.4907C72.0394 31.4529 71.9388 31.4213 71.831 31.3958C71.7249 31.3686 71.6145 31.3475 71.4995 31.3326C71.3863 31.3177 71.274 31.3099 71.1625 31.3092C70.8935 31.3075 70.6535 31.3396 70.4425 31.4055C70.2314 31.4696 70.053 31.5613 69.9071 31.6807C69.763 31.7984 69.6523 31.9401 69.5751 32.106C69.4997 32.2701 69.4614 32.4513 69.4601 32.6495C69.4588 32.8548 69.4965 33.0435 69.5733 33.2157C69.65 33.3879 69.7615 33.5372 69.9075 33.6638C70.0554 33.7887 70.2353 33.8872 70.4472 33.9594C70.6609 34.0298 70.9022 34.0658 71.1712 34.0676C71.2934 34.0684 71.4146 34.0603 71.5351 34.0434C71.6556 34.0265 71.7716 34.0033 71.8833 33.9739C71.9968 33.9428 72.1059 33.9064 72.2106 33.8646C72.3153 33.821 72.4129 33.7738 72.5035 33.7231L72.887 34.3627C72.6595 34.5064 72.3968 34.6188 72.099 34.7001C71.8011 34.7796 71.485 34.8182 71.1505 34.8161C70.724 34.8133 70.35 34.756 70.0286 34.6442C69.7072 34.5307 69.4392 34.3767 69.2246 34.1824C69.0099 33.9864 68.8486 33.757 68.7405 33.4944C68.6343 33.23 68.5821 32.9465 68.5841 32.6438Z" fill="white"/>
<path d="M63.8965 30.5641L64.738 30.5695L67.3149 31.9401L67.3236 30.5862L68.1652 30.5917L68.1383 34.7409L67.2968 34.7355L67.3091 32.8321L64.7322 31.4695L64.7112 34.7187L63.8697 34.7133L63.8965 30.5641Z" fill="white"/>
<path d="M59.8672 30.5381L63.4005 30.5609L63.3958 31.2989L60.7039 31.2815L60.6986 32.1098L63.0825 32.1252L63.078 32.818L60.6941 32.8026L60.6867 33.9574L63.4342 33.9752L63.4295 34.7105L59.8404 34.6873L59.8672 30.5381Z" fill="white"/>
<path d="M54.6232 32.5404C54.6251 32.2483 54.6817 31.9761 54.7931 31.7238C54.9045 31.4696 55.0661 31.2495 55.2779 31.0632C55.4897 30.877 55.749 30.7309 56.0559 30.6249C56.3645 30.5189 56.7171 30.4672 57.1135 30.4698C57.2569 30.4707 57.4002 30.4796 57.5434 30.4965C57.6884 30.5116 57.8308 30.5355 57.9704 30.5683C58.1117 30.601 58.2486 30.6426 58.381 30.693C58.5152 30.7417 58.6423 30.8 58.7622 30.8681L58.3705 31.5027C58.2982 31.4597 58.2162 31.4211 58.1244 31.3869C58.0326 31.3509 57.9336 31.3211 57.8276 31.2974C57.7233 31.2719 57.6146 31.2527 57.5014 31.2395C57.39 31.2264 57.2777 31.2195 57.1644 31.2188C56.9025 31.2171 56.6687 31.2492 56.4629 31.3151C56.2572 31.3793 56.0832 31.4711 55.9408 31.5905C55.7985 31.7082 55.6896 31.8499 55.6142 32.0158C55.5388 32.1817 55.5004 32.3637 55.4992 32.5619C55.4978 32.7672 55.5356 32.956 55.6123 33.1281C55.6891 33.3003 55.7987 33.4488 55.9413 33.5736C56.0838 33.6984 56.2566 33.7969 56.4597 33.869C56.6628 33.9393 56.89 33.9753 57.1413 33.9769C57.3413 33.9782 57.5246 33.9573 57.6912 33.9141C57.8579 33.8692 58.0034 33.8055 58.1278 33.7231C58.2523 33.6407 58.3538 33.5414 58.4324 33.4251C58.511 33.307 58.5632 33.1746 58.589 33.0279L57.1395 33.0185L57.144 32.3257L59.35 32.3399L59.35 32.3426L59.3527 32.3399C59.3955 32.5526 59.4075 32.7598 59.3885 32.9614C59.3712 33.1613 59.324 33.3503 59.2468 33.5286C59.1713 33.7051 59.0676 33.8672 58.9357 34.0151C58.8037 34.1629 58.6463 34.2902 58.4633 34.3969C58.2803 34.502 58.0727 34.5838 57.8405 34.6425C57.6083 34.6994 57.3541 34.7269 57.078 34.7252C56.6922 34.7227 56.3466 34.6638 56.0412 34.5485C55.7375 34.4333 55.4801 34.2768 55.269 34.079C55.0579 33.8812 54.8966 33.65 54.785 33.3856C54.6752 33.1212 54.6213 32.8394 54.6232 32.5404Z" fill="white"/>
<path d="M51.8645 30.4863L52.7565 30.4921L54.7366 34.6543L53.8526 34.6486L53.5253 33.9483L51.1016 33.9326L50.7759 34.6287L49.8892 34.623L51.8645 30.4863ZM53.1979 33.2533L52.3128 31.3627L51.4273 33.2418L53.1979 33.2533Z" fill="white"/>
<path d="M45.5508 30.4456L46.3923 30.451L46.3703 33.8622L48.7833 33.8778L48.7786 34.6158L45.524 34.5948L45.5508 30.4456Z" fill="white"/>
<path d="M42.4973 30.4258L43.3893 30.4316L45.3694 34.5937L44.4854 34.588L44.1581 33.8877L41.7344 33.8721L41.4087 34.5682L40.522 34.5624L42.4973 30.4258ZM43.8307 33.1927L42.9456 31.3021L42.0601 33.1813L43.8307 33.1927Z" fill="white"/>
<path d="M38.2926 31.1367L36.7609 31.1268L36.7656 30.3888L40.6706 30.414L40.6658 31.152L39.1341 31.1421L39.1121 34.5533L38.2705 34.5479L38.2926 31.1367Z" fill="white"/>
<path d="M35.6152 30.3813L36.4621 30.3868L36.4353 34.536L35.5884 34.5306L35.6152 30.3813Z" fill="white"/>
<path d="M30.4768 32.3843C30.4786 32.0923 30.5353 31.8201 30.6466 31.5678C30.758 31.3136 30.9196 31.0935 31.1314 30.9072C31.3432 30.721 31.6026 30.5749 31.9094 30.4689C32.2181 30.3629 32.5706 30.3112 32.967 30.3138C33.1104 30.3147 33.2537 30.3236 33.3969 30.3405C33.5419 30.3556 33.6843 30.3795 33.8239 30.4122C33.9652 30.445 34.1021 30.4866 34.2346 30.537C34.3687 30.5857 34.4958 30.644 34.6157 30.712L34.224 31.3467C34.1517 31.3037 34.0697 31.2651 33.9779 31.2309C33.8861 31.1949 33.7872 31.1651 33.6811 31.1414C33.5769 31.1159 33.4681 31.0966 33.355 31.0835C33.2435 31.0704 33.1312 31.0635 33.0179 31.0628C32.756 31.0611 32.5222 31.0932 32.3165 31.1591C32.1107 31.2233 31.9367 31.3151 31.7943 31.4345C31.652 31.5521 31.5431 31.6939 31.4677 31.8598C31.3923 32.0257 31.354 32.2077 31.3527 32.4059C31.3514 32.6112 31.3891 32.8 31.4658 32.9721C31.5426 33.1443 31.6522 33.2928 31.7948 33.4176C31.9373 33.5424 32.1102 33.6409 32.3132 33.713C32.5163 33.7833 32.7435 33.8193 32.9948 33.8209C33.1948 33.8222 33.3781 33.8013 33.5447 33.7581C33.7114 33.7132 33.8569 33.6495 33.9814 33.5671C34.1058 33.4847 34.2073 33.3854 34.2859 33.2691C34.3646 33.151 34.4167 33.0186 34.4425 32.8719L32.993 32.8625L32.9975 32.1697L35.2035 32.1839L35.2035 32.1866L35.2062 32.1839C35.249 32.3966 35.261 32.6037 35.242 32.8054C35.2248 33.0053 35.1775 33.1943 35.1003 33.3726C35.0248 33.5491 34.9211 33.7112 34.7892 33.8591C34.6572 34.0069 34.4998 34.1342 34.3168 34.2409C34.1338 34.346 33.9262 34.4278 33.694 34.4865C33.4618 34.5434 33.2076 34.5709 32.9316 34.5691C32.5458 34.5667 32.2001 34.5078 31.8947 34.3925C31.591 34.2773 31.3336 34.1208 31.1225 33.923C30.9114 33.7252 30.7501 33.494 30.6385 33.2296C30.5287 32.9652 30.4748 32.6834 30.4768 32.3843Z" fill="white"/>
<path d="M29.3418 30.3408L30.1886 30.3463L30.1618 34.4955L29.315 34.49L29.3418 30.3408Z" fill="white"/>
<path d="M24.9609 30.3125L26.4821 30.3223C26.9263 30.3252 27.3118 30.3755 27.6386 30.4732C27.9653 30.5708 28.2352 30.7097 28.4482 30.8899C28.663 31.0683 28.8218 31.2852 28.9245 31.5407C29.0291 31.7945 29.0803 32.0798 29.0783 32.3965C29.0763 32.6974 29.0223 32.9758 28.9162 33.2317C28.8102 33.4859 28.6495 33.7061 28.4341 33.8923C28.2188 34.0768 27.9471 34.221 27.619 34.3251C27.2909 34.4274 26.9047 34.4771 26.4605 34.4742L24.9341 34.4617L24.9609 30.3125ZM26.667 33.7455C26.9183 33.7471 27.1389 33.7167 27.3286 33.6542C27.5184 33.59 27.6765 33.4989 27.8029 33.3812C27.9311 33.2634 28.0276 33.1207 28.0924 32.953C28.1572 32.7853 28.1903 32.5979 28.1916 32.3908C28.1929 32.1873 28.1623 32.0039 28.0996 31.8407C28.037 31.6757 27.9423 31.5361 27.8156 31.4221C27.6907 31.3062 27.5338 31.2167 27.3448 31.1535C27.1558 31.0904 26.9357 31.058 26.6844 31.0564L25.7977 31.0506L25.7803 33.7398L26.667 33.7455Z" fill="white"/>
<path d="M23.0096 0H1.091V5.46617H13.6942L4.37879 14.2121C4.37879 14.2121 0 17.8832 0 23.5192C0 29.532 6.40775 31.7563 6.40775 31.7563C11.9466 33.4904 18.0779 32.2504 20.8178 30.6106C26.425 27.0079 29.2639 24.6954 33.969 20.2248L41.0925 28.4241L47.9484 28.4896L38.3527 16.3985L47.1201 7.65264H40.5445C32.3107 15.1719 27.3802 19.537 18.0779 25.691C16.2909 26.8791 11.4036 28.6297 8.03683 25.691C5.30027 23.3024 7.4938 19.7003 8.57986 18.4252C10.4262 16.2575 23.0096 4.37294 23.0096 4.37294V0Z" fill="white"/>
<path d="M24.6387 0H30.285V28.4885H24.6387V0Z" fill="white"/>
<path d="M47.7383 7.44293H53.3846V28.4885H47.7383V7.44293Z" fill="white"/>
<path d="M49.0215 5.64636L54.7291 2.1347e-06L77.2533 2.10381e-06L77.2533 5.64636L49.0215 5.64636Z" fill="white"/>
<path d="M65.915 6.92963C77.8578 6.92963 76.9812 19.5826 76.9812 19.5826H60.6557C60.6557 19.5826 61.4228 24.2729 66.6819 24.1639C70.6179 24.0822 72.2628 22.0999 72.2699 22.0914L75.3377 25.4728C75.3302 25.4835 73.0264 28.7451 66.6819 28.7451C54.1943 28.7451 54.4103 17.7336 54.4104 17.7283C54.4104 17.7283 54.4105 6.92966 65.915 6.92963ZM65.8054 11.4018C60.5475 11.2905 60.5462 16.0898 60.5462 16.0921H71.2838C71.2838 16.0921 71.5029 11.4018 65.8054 11.4018Z" fill="white"/>
</svg>
