<svg width="44" height="42" viewBox="0 0 44 42" fill="none" xmlns="http://www.w3.org/2000/svg">
<rect width="44" height="42" rx="8" fill="#2ED933"/>
<path d="M9.48069 33.5193L8.03795 33.1863C7.92315 33.6838 8.07271 34.2053 8.4337 34.5663C8.7947 34.9273 9.31619 35.0768 9.81363 34.9621L9.48069 33.5193ZM18.5815 26.5122C19.1598 25.934 19.1598 24.9965 18.5815 24.4183C18.0033 23.8401 17.0658 23.8401 16.4875 24.4183L18.5815 26.5122ZM19.8453 23.895C19.8453 24.3038 19.5139 24.6353 19.105 24.6353V27.5967C21.1494 27.5967 22.8067 25.9394 22.8067 23.895H19.8453ZM19.105 24.6353C18.6961 24.6353 18.3647 24.3038 18.3647 23.895H15.4034C15.4034 25.9394 17.0606 27.5967 19.105 27.5967V24.6353ZM18.3647 23.895C18.3647 23.4861 18.6961 23.1547 19.105 23.1547V20.1934C17.0606 20.1934 15.4034 21.8507 15.4034 23.895H18.3647ZM19.105 23.1547C19.5139 23.1547 19.8453 23.4861 19.8453 23.895H22.8067C22.8067 21.8507 21.1494 20.1934 19.105 20.1934V23.1547ZM26.0071 7.49553L23.2404 10.2623L25.3343 12.3563L28.1011 9.58951L26.0071 7.49553ZM23.8806 9.88565L16.2027 12.0793L17.0163 14.9267L24.6941 12.733L23.8806 9.88565ZM11.8516 16.6605L8.03795 33.1863L10.9234 33.8522L14.7371 17.3263L11.8516 16.6605ZM9.81363 34.9621L26.3395 31.1483L25.6737 28.2628L9.14775 32.0766L9.81363 34.9621ZM30.9207 26.7973L33.1143 19.1194L30.267 18.3058L28.0733 25.9838L30.9207 26.7973ZM32.7376 19.7597L35.5044 16.9928L33.4105 14.8989L30.6437 17.6657L32.7376 19.7597ZM35.5044 11.5485L31.4515 7.49553L29.3576 9.58951L33.4105 13.6425L35.5044 11.5485ZM35.5044 16.9928C35.7804 16.7169 36.0511 16.4478 36.2597 16.2022C36.4794 15.9433 36.7157 15.6147 36.8551 15.1858L34.0387 14.2707C34.0682 14.1798 34.103 14.1669 34.0021 14.2857C33.89 14.4177 33.721 14.5884 33.4105 14.8989L35.5044 16.9928ZM33.4105 13.6425C33.721 13.9529 33.89 14.1236 34.0021 14.2557C34.103 14.3745 34.0682 14.3616 34.0387 14.2707L36.8551 13.3556C36.7157 12.9266 36.4794 12.598 36.2597 12.3391C36.0511 12.0935 35.7804 11.8244 35.5044 11.5485L33.4105 13.6425ZM36.8551 15.1858C37.0483 14.591 37.0483 13.9503 36.8551 13.3556L34.0387 14.2707L36.8551 15.1858ZM26.3395 31.1483C27.2309 30.9427 28.0099 30.7811 28.6703 30.3794L27.1313 27.8496C26.9758 27.944 26.7641 28.0113 25.6737 28.2628L26.3395 31.1483ZM28.0733 25.9838C27.7659 27.0596 27.6878 27.2677 27.5854 27.4181L30.0329 29.0853C30.4681 28.4466 30.6695 27.6768 30.9207 26.7973L28.0733 25.9838ZM28.6703 30.3794C29.2116 30.0503 29.6762 29.6089 30.0329 29.0853L27.5854 27.4181C27.4665 27.5927 27.3118 27.7397 27.1313 27.8496L28.6703 30.3794ZM16.2027 12.0793C15.3232 12.3306 14.5535 12.532 13.9146 12.9671L15.5819 15.4146C15.7323 15.3121 15.9403 15.2341 17.0163 14.9267L16.2027 12.0793ZM14.7371 17.3263C14.9887 16.236 15.0559 16.0242 15.1505 15.8688L12.6205 14.3297C12.2188 14.9901 12.0573 15.7692 11.8516 16.6605L14.7371 17.3263ZM13.9146 12.9671C13.391 13.3238 12.9498 13.7884 12.6205 14.3297L15.1505 15.8688C15.2602 15.6883 15.4073 15.5335 15.5819 15.4146L13.9146 12.9671ZM28.1011 9.58951C28.4116 9.27906 28.5823 9.10999 28.7144 8.9979C28.8331 8.89702 28.8203 8.93179 28.7293 8.96131L27.8143 6.14493C27.3852 6.28432 27.0568 6.52059 26.7978 6.74036C26.5522 6.94892 26.2831 7.21964 26.0071 7.49553L28.1011 9.58951ZM31.4515 7.49553C31.1755 7.21963 30.9065 6.94892 30.6609 6.74036C30.4019 6.52059 30.0735 6.28432 29.6444 6.14493L28.7293 8.96131C28.6384 8.93179 28.6255 8.89704 28.7443 8.9979C28.8764 9.10999 29.0471 9.27905 29.3576 9.58951L31.4515 7.49553ZM28.7293 8.96131L29.6444 6.14493C29.0496 5.95169 28.4091 5.95169 27.8143 6.14493L28.7293 8.96131ZM23.2404 12.3563L30.6437 19.7597L32.7376 17.6657L25.3343 10.2623L23.2404 12.3563ZM16.4875 24.4183L8.4337 32.4723L10.5277 34.5663L18.5815 26.5122L16.4875 24.4183Z" fill="#2D2D2D"/>
</svg>
